<svg width="24" height="24" viewBox="0 0 24 24" fill="none" xmlns="http://www.w3.org/2000/svg">
<g id="fluent-emoji:waving-hand">
<g id="Group">
<path id="Vector" d="M13.1828 3.81722C14.0955 5.82947 15.2153 8.29847 16.0553 9.27947C16.2203 8.89847 16.2023 8.25947 16.3898 6.69947C16.5593 5.29247 17.7203 5.15822 18.219 5.25797C19.3215 5.48822 19.6568 6.60497 19.62 7.01672C19.5615 7.67297 19.5585 7.65047 19.4385 9.23822C19.2623 11.5595 20.1585 13.3122 20.241 15.2997C20.241 19.0452 16.9583 20.8857 14.661 20.8857C12.8228 20.8857 10.983 19.7097 10.2938 19.1217L6.84678 15.9732C6.42453 15.6455 5.38202 14.5625 4.92452 13.9392C3.67652 12.242 5.48102 11.0727 6.49502 11.3667C6.41552 11.3052 5.93403 10.5237 5.70378 10.1412C5.08503 8.89847 5.70378 8.07122 6.16128 7.84322C7.19853 7.32722 7.96128 7.90772 8.20128 8.22422C8.10903 8.06822 7.82102 7.43672 7.35678 6.27797C6.89252 5.11997 7.64028 4.40447 8.07228 4.19147C9.00978 3.75722 9.90077 4.30847 10.1235 4.80122C10.233 5.04197 10.821 6.33122 11.0775 6.89897C10.884 6.42797 10.5345 5.49122 10.4108 5.05847C10.1648 4.03847 10.7565 3.33947 11.1323 3.15947C11.6535 2.90972 12.7418 2.84447 13.1723 3.79247L13.1828 3.81722Z" fill="url(#paint0_radial_2_82)"/>
<path id="Vector_2" d="M13.1828 3.81722C14.0955 5.82947 15.2153 8.29847 16.0553 9.27947C16.2203 8.89847 16.2023 8.25947 16.3898 6.69947C16.5593 5.29247 17.7203 5.15822 18.219 5.25797C19.3215 5.48822 19.6568 6.60497 19.62 7.01672C19.5615 7.67297 19.5585 7.65047 19.4385 9.23822C19.2623 11.5595 20.1585 13.3122 20.241 15.2997C20.241 19.0452 16.9583 20.8857 14.661 20.8857C12.8228 20.8857 10.983 19.7097 10.2938 19.1217L6.8468 15.9732C6.42455 15.6455 5.38205 14.5625 4.9238 13.9392C3.67655 12.242 5.48105 11.0727 6.49505 11.3667C6.41555 11.3052 5.93405 10.5237 5.7038 10.1412C5.08505 8.89847 5.7038 8.07122 6.1613 7.84322C7.19855 7.32722 7.9613 7.90772 8.2013 8.22422C8.10905 8.06822 7.82105 7.43672 7.3568 6.27797C6.89255 5.11997 7.6403 4.40447 8.0723 4.19147C9.0098 3.75722 9.9008 4.30847 10.1235 4.80122C10.233 5.04197 10.821 6.33122 11.0775 6.89897C10.884 6.42797 10.5345 5.49122 10.4108 5.05847C10.1648 4.03847 10.7565 3.33947 11.1315 3.15947C11.6535 2.90972 12.7418 2.84447 13.1715 3.79247L13.1828 3.81722Z" fill="url(#paint1_radial_2_82)"/>
<path id="Vector_3" d="M19.62 7.01676C19.5615 7.67301 19.5585 7.65051 19.4385 9.23826C19.3763 10.0588 19.8218 13.079 19.8218 13.079C18.738 13.433 16.3898 12.9643 16.056 9.27951C16.2203 8.89851 16.2023 8.25951 16.3898 6.69951C16.5593 5.29176 17.7203 5.15826 18.219 5.25801C19.3215 5.48826 19.6568 6.60501 19.62 7.01676Z" fill="url(#paint2_radial_2_82)"/>
<path id="Vector_4" d="M19.62 7.01676C19.5615 7.67301 19.5585 7.65051 19.4385 9.23826C19.3763 10.0588 19.8218 13.079 19.8218 13.079C18.738 13.433 16.3898 12.9643 16.056 9.27951C16.2203 8.89851 16.2023 8.25951 16.3898 6.69951C16.5593 5.29176 17.7203 5.15826 18.219 5.25801C19.3215 5.48826 19.6568 6.60501 19.62 7.01676Z" fill="url(#paint3_radial_2_82)"/>
<path id="Vector_5" d="M19.62 7.01676C19.5615 7.67301 19.5585 7.65051 19.4385 9.23826C19.3763 10.0588 19.8218 13.079 19.8218 13.079C18.738 13.433 16.3898 12.9643 16.056 9.27951C16.2203 8.89851 16.2023 8.25951 16.3898 6.69951C16.5593 5.29176 17.7203 5.15826 18.219 5.25801C19.3215 5.48826 19.6568 6.60501 19.62 7.01676Z" fill="url(#paint4_radial_2_82)"/>
<path id="Vector_6" d="M13.1828 3.81722C14.0956 5.82947 15.2153 8.29847 16.0553 9.27947C15.9241 10.4015 14.9213 10.9385 14.0573 10.7375C12.9676 10.421 12.5536 9.64772 12.5536 9.64772C12.5536 9.64772 12.2686 9.20672 11.9911 8.72147C11.6701 8.16047 11.7286 8.17322 11.1908 7.15772C11.0851 6.95822 10.5676 5.60522 10.4108 5.05847C10.1648 4.03847 10.7566 3.33947 11.1323 3.15947C11.6536 2.90972 12.7418 2.84447 13.1723 3.79247L13.1828 3.81722Z" fill="url(#paint5_radial_2_82)"/>
<path id="Vector_7" d="M13.1828 3.81722C14.0956 5.82947 15.2153 8.29847 16.0553 9.27947C15.9241 10.4015 14.9213 10.9385 14.0573 10.7375C12.9676 10.421 12.5536 9.64772 12.5536 9.64772C12.5536 9.64772 12.2686 9.20672 11.9911 8.72147C11.6701 8.16047 11.7286 8.17322 11.1908 7.15772C11.0851 6.95822 10.5676 5.60522 10.4108 5.05847C10.1648 4.03847 10.7566 3.33947 11.1323 3.15947C11.6536 2.90972 12.7418 2.84447 13.1723 3.79247L13.1828 3.81722Z" fill="url(#paint6_linear_2_82)"/>
<path id="Vector_8" d="M13.1828 3.81722C14.0956 5.82947 15.2153 8.29847 16.0553 9.27947C15.9241 10.4015 14.9213 10.9385 14.0573 10.7375C12.9676 10.421 12.5536 9.64772 12.5536 9.64772C12.5536 9.64772 12.2686 9.20672 11.9911 8.72147C11.6701 8.16047 11.7286 8.17322 11.1908 7.15772C11.0851 6.95822 10.5676 5.60522 10.4108 5.05847C10.1648 4.03847 10.7566 3.33947 11.1323 3.15947C11.6536 2.90972 12.7418 2.84447 13.1723 3.79247L13.1828 3.81722Z" fill="url(#paint7_radial_2_82)"/>
<path id="Vector_9" d="M13.1828 3.81722C14.0956 5.82947 15.2153 8.29847 16.0553 9.27947C15.9241 10.4015 14.9213 10.9385 14.0573 10.7375C12.9676 10.421 12.5536 9.64772 12.5536 9.64772C12.5536 9.64772 12.2686 9.20672 11.9911 8.72147C11.6701 8.16047 11.7286 8.17322 11.1908 7.15772C11.0851 6.95822 10.5676 5.60522 10.4108 5.05847C10.1648 4.03847 10.7566 3.33947 11.1323 3.15947C11.6536 2.90972 12.7418 2.84447 13.1723 3.79247L13.1828 3.81722Z" fill="url(#paint8_radial_2_82)"/>
<path id="Vector_10" d="M13.1828 3.81722C14.0956 5.82947 15.2153 8.29847 16.0553 9.27947C15.9241 10.4015 14.9213 10.9385 14.0573 10.7375C12.9676 10.421 12.5536 9.64772 12.5536 9.64772C12.5536 9.64772 12.2686 9.20672 11.9911 8.72147C11.6701 8.16047 11.7286 8.17322 11.1908 7.15772C11.0851 6.95822 10.5676 5.60522 10.4108 5.05847C10.1648 4.03847 10.7566 3.33947 11.1323 3.15947C11.6536 2.90972 12.7418 2.84447 13.1723 3.79247L13.1828 3.81722Z" fill="url(#paint9_linear_2_82)"/>
<path id="Vector_11" d="M10.1235 4.8012C10.2705 5.1252 11.2845 7.3452 11.1908 7.1577C11.463 7.7727 12.3083 9.2727 12.5535 9.68295C13.0965 10.5874 12.4838 11.3397 12.0885 11.5692C10.9508 12.2292 10.2975 11.3877 10.2975 11.3877C9.69752 10.5087 9.19652 9.7767 8.20577 8.2182C7.96727 7.7682 7.53227 6.7647 7.35677 6.27795C6.92402 5.07645 7.64027 4.40445 8.07227 4.19145C9.00977 3.7572 9.90077 4.30845 10.1235 4.8012Z" fill="url(#paint10_radial_2_82)"/>
<path id="Vector_12" d="M10.1235 4.8012C10.2705 5.1252 11.2845 7.3452 11.1908 7.1577C11.463 7.7727 12.3083 9.2727 12.5535 9.68295C13.0965 10.5874 12.4838 11.3397 12.0885 11.5692C10.9508 12.2292 10.2975 11.3877 10.2975 11.3877C9.69752 10.5087 9.19652 9.7767 8.20577 8.2182C7.96727 7.7682 7.53227 6.7647 7.35677 6.27795C6.92402 5.07645 7.64027 4.40445 8.07227 4.19145C9.00977 3.7572 9.90077 4.30845 10.1235 4.8012Z" fill="url(#paint11_linear_2_82)"/>
<path id="Vector_13" d="M10.1235 4.8012C10.2705 5.1252 11.2845 7.3452 11.1908 7.1577C11.463 7.7727 12.3083 9.2727 12.5535 9.68295C13.0965 10.5874 12.4838 11.3397 12.0885 11.5692C10.9508 12.2292 10.2975 11.3877 10.2975 11.3877C9.69752 10.5087 9.19652 9.7767 8.20577 8.2182C7.96727 7.7682 7.53227 6.7647 7.35677 6.27795C6.92402 5.07645 7.64027 4.40445 8.07227 4.19145C9.00977 3.7572 9.90077 4.30845 10.1235 4.8012Z" fill="url(#paint12_radial_2_82)"/>
<path id="Vector_14" d="M10.1235 4.8012C10.2705 5.1252 11.2845 7.3452 11.1908 7.1577C11.463 7.7727 12.3083 9.2727 12.5535 9.68295C13.0965 10.5874 12.4838 11.3397 12.0885 11.5692C10.9508 12.2292 10.2975 11.3877 10.2975 11.3877C9.69752 10.5087 9.19652 9.7767 8.20577 8.2182C7.96727 7.7682 7.53227 6.7647 7.35677 6.27795C6.92402 5.07645 7.64027 4.40445 8.07227 4.19145C9.00977 3.7572 9.90077 4.30845 10.1235 4.8012Z" fill="url(#paint13_radial_2_82)"/>
<path id="Vector_15" d="M10.1235 4.8012C10.2705 5.1252 11.2845 7.3452 11.1908 7.1577C11.463 7.7727 12.3083 9.2727 12.5535 9.68295C13.0965 10.5874 12.4838 11.3397 12.0885 11.5692C10.9508 12.2292 10.2975 11.3877 10.2975 11.3877C9.69752 10.5087 9.19652 9.7767 8.20577 8.2182C7.96727 7.7682 7.53227 6.7647 7.35677 6.27795C6.92402 5.07645 7.64027 4.40445 8.07227 4.19145C9.00977 3.7572 9.90077 4.30845 10.1235 4.8012Z" fill="url(#paint14_radial_2_82)"/>
<path id="Vector_16" d="M10.1235 4.8012C10.2705 5.1252 11.2845 7.3452 11.1908 7.1577C11.463 7.7727 12.3083 9.2727 12.5535 9.68295C13.0965 10.5874 12.4838 11.3397 12.0885 11.5692C10.9508 12.2292 10.2975 11.3877 10.2975 11.3877C9.69752 10.5087 9.19652 9.7767 8.20577 8.2182C7.96727 7.7682 7.53227 6.7647 7.35677 6.27795C6.92402 5.07645 7.64027 4.40445 8.07227 4.19145C9.00977 3.7572 9.90077 4.30845 10.1235 4.8012Z" fill="url(#paint15_linear_2_82)"/>
<path id="Vector_17" d="M6.16132 7.84318C7.19857 7.32718 7.96132 7.90768 8.20132 8.22418C8.94982 9.35443 9.84382 10.6392 10.2563 11.3232C11.3588 13.1457 9.10282 13.9362 9.10282 13.9362C7.02832 11.5984 6.64432 11.4807 6.49507 11.3659C6.41557 11.3052 5.93407 10.5237 5.70382 10.1412C5.08507 8.89843 5.70382 8.07043 6.16132 7.84318Z" fill="url(#paint16_radial_2_82)"/>
<path id="Vector_18" d="M6.16132 7.84318C7.19857 7.32718 7.96132 7.90768 8.20132 8.22418C8.94982 9.35443 9.84382 10.6392 10.2563 11.3232C11.3588 13.1457 9.10282 13.9362 9.10282 13.9362C7.02832 11.5984 6.64432 11.4807 6.49507 11.3659C6.41557 11.3052 5.93407 10.5237 5.70382 10.1412C5.08507 8.89843 5.70382 8.07043 6.16132 7.84318Z" fill="url(#paint17_linear_2_82)"/>
<path id="Vector_19" d="M6.16132 7.84318C7.19857 7.32718 7.96132 7.90768 8.20132 8.22418C8.94982 9.35443 9.84382 10.6392 10.2563 11.3232C11.3588 13.1457 9.10282 13.9362 9.10282 13.9362C7.02832 11.5984 6.64432 11.4807 6.49507 11.3659C6.41557 11.3052 5.93407 10.5237 5.70382 10.1412C5.08507 8.89843 5.70382 8.07043 6.16132 7.84318Z" fill="url(#paint18_radial_2_82)"/>
<path id="Vector_20" d="M6.16132 7.84318C7.19857 7.32718 7.96132 7.90768 8.20132 8.22418C8.94982 9.35443 9.84382 10.6392 10.2563 11.3232C11.3588 13.1457 9.10282 13.9362 9.10282 13.9362C7.02832 11.5984 6.64432 11.4807 6.49507 11.3659C6.41557 11.3052 5.93407 10.5237 5.70382 10.1412C5.08507 8.89843 5.70382 8.07043 6.16132 7.84318Z" fill="url(#paint19_radial_2_82)"/>
<path id="Vector_21" d="M6.16132 7.84318C7.19857 7.32718 7.96132 7.90768 8.20132 8.22418C8.94982 9.35443 9.84382 10.6392 10.2563 11.3232C11.3588 13.1457 9.10282 13.9362 9.10282 13.9362C7.02832 11.5984 6.64432 11.4807 6.49507 11.3659C6.41557 11.3052 5.93407 10.5237 5.70382 10.1412C5.08507 8.89843 5.70382 8.07043 6.16132 7.84318Z" fill="url(#paint20_radial_2_82)"/>
<path id="Vector_22" d="M6.16132 7.84318C7.19857 7.32718 7.96132 7.90768 8.20132 8.22418C8.94982 9.35443 9.84382 10.6392 10.2563 11.3232C11.3588 13.1457 9.10282 13.9362 9.10282 13.9362C7.02832 11.5984 6.64432 11.4807 6.49507 11.3659C6.41557 11.3052 5.93407 10.5237 5.70382 10.1412C5.08507 8.89843 5.70382 8.07043 6.16132 7.84318Z" fill="url(#paint21_radial_2_82)"/>
<path id="Vector_23" d="M4.9238 13.9392C3.67655 12.242 5.48105 11.0727 6.49505 11.3667C6.97505 11.663 7.71755 12.4062 8.0333 12.7415C10.0448 14.7027 9.70955 15.308 9.14705 15.974C8.6018 16.4255 7.89305 16.7877 6.8468 15.974C6.42455 15.6455 5.38205 14.5625 4.9238 13.9392Z" fill="url(#paint22_radial_2_82)"/>
<path id="Vector_24" d="M4.9238 13.9392C3.67655 12.242 5.48105 11.0727 6.49505 11.3667C6.97505 11.663 7.71755 12.4062 8.0333 12.7415C10.0448 14.7027 9.70955 15.308 9.14705 15.974C8.6018 16.4255 7.89305 16.7877 6.8468 15.974C6.42455 15.6455 5.38205 14.5625 4.9238 13.9392Z" fill="url(#paint23_radial_2_82)"/>
<path id="Vector_25" d="M4.9238 13.9392C3.67655 12.242 5.48105 11.0727 6.49505 11.3667C6.97505 11.663 7.71755 12.4062 8.0333 12.7415C10.0448 14.7027 9.70955 15.308 9.14705 15.974C8.6018 16.4255 7.89305 16.7877 6.8468 15.974C6.42455 15.6455 5.38205 14.5625 4.9238 13.9392Z" fill="url(#paint24_radial_2_82)"/>
<path id="Vector_26" d="M4.9238 13.9392C3.67655 12.242 5.48105 11.0727 6.49505 11.3667C6.97505 11.663 7.71755 12.4062 8.0333 12.7415C10.0448 14.7027 9.70955 15.308 9.14705 15.974C8.6018 16.4255 7.89305 16.7877 6.8468 15.974C6.42455 15.6455 5.38205 14.5625 4.9238 13.9392Z" fill="url(#paint25_radial_2_82)"/>
<path id="Vector_27" d="M4.9238 13.9392C3.67655 12.242 5.48105 11.0727 6.49505 11.3667C6.97505 11.663 7.71755 12.4062 8.0333 12.7415C10.0448 14.7027 9.70955 15.308 9.14705 15.974C8.6018 16.4255 7.89305 16.7877 6.8468 15.974C6.42455 15.6455 5.38205 14.5625 4.9238 13.9392Z" fill="url(#paint26_linear_2_82)"/>
<path id="Vector_28" d="M13.1828 3.81722C14.0955 5.82947 15.2153 8.29847 16.0553 9.27947C16.2203 8.89847 16.2023 8.25947 16.3898 6.69947C16.5593 5.29247 17.7203 5.15822 18.219 5.25797C19.3215 5.48822 19.6568 6.60497 19.62 7.01672C19.5615 7.67297 19.5585 7.65047 19.4385 9.23822C19.2623 11.5595 20.1585 13.3122 20.241 15.2997C20.241 19.0452 16.9583 20.8857 14.661 20.8857C12.8228 20.8857 10.983 19.7097 10.2938 19.1217L6.8468 15.9732C6.42455 15.6455 5.38205 14.5625 4.9238 13.9392C3.67655 12.242 5.48105 11.0727 6.49505 11.3667C6.41555 11.3052 5.93405 10.5237 5.7038 10.1412C5.08505 8.89847 5.7038 8.07122 6.1613 7.84322C7.19855 7.32722 7.9613 7.90772 8.2013 8.22422C8.10905 8.06822 7.82105 7.43672 7.3568 6.27797C6.89255 5.11997 7.6403 4.40447 8.0723 4.19147C9.0098 3.75722 9.9008 4.30847 10.1235 4.80122C10.233 5.04197 10.821 6.33122 11.0775 6.89897C10.884 6.42797 10.5345 5.49122 10.4108 5.05847C10.1648 4.03847 10.7565 3.33947 11.1315 3.15947C11.6535 2.90972 12.7418 2.84447 13.1715 3.79247L13.1828 3.81722Z" fill="url(#paint27_radial_2_82)"/>
<path id="Vector_29" d="M13.1828 3.81722C14.0955 5.82947 15.2153 8.29847 16.0553 9.27947C16.2203 8.89847 16.2023 8.25947 16.3898 6.69947C16.5593 5.29247 17.7203 5.15822 18.219 5.25797C19.3215 5.48822 19.6568 6.60497 19.62 7.01672C19.5615 7.67297 19.5585 7.65047 19.4385 9.23822C19.2623 11.5595 20.1585 13.3122 20.241 15.2997C20.241 19.0452 16.9583 20.8857 14.661 20.8857C12.8228 20.8857 10.983 19.7097 10.2938 19.1217L6.8468 15.9732C6.42455 15.6455 5.38205 14.5625 4.9238 13.9392C3.67655 12.242 5.48105 11.0727 6.49505 11.3667C6.41555 11.3052 5.93405 10.5237 5.7038 10.1412C5.08505 8.89847 5.7038 8.07122 6.1613 7.84322C7.19855 7.32722 7.9613 7.90772 8.2013 8.22422C8.10905 8.06822 7.82105 7.43672 7.3568 6.27797C6.89255 5.11997 7.6403 4.40447 8.0723 4.19147C9.0098 3.75722 9.9008 4.30847 10.1235 4.80122C10.233 5.04197 10.821 6.33122 11.0775 6.89897C10.884 6.42797 10.5345 5.49122 10.4108 5.05847C10.1648 4.03847 10.7565 3.33947 11.1315 3.15947C11.6535 2.90972 12.7418 2.84447 13.1715 3.79247L13.1828 3.81722Z" fill="url(#paint28_radial_2_82)"/>
<path id="Vector_30" d="M13.1828 3.81722C14.0955 5.82947 15.2153 8.29847 16.0553 9.27947C16.2203 8.89847 16.2023 8.25947 16.3898 6.69947C16.5593 5.29247 17.7203 5.15822 18.219 5.25797C19.3215 5.48822 19.6568 6.60497 19.62 7.01672C19.5615 7.67297 19.5585 7.65047 19.4385 9.23822C19.2623 11.5595 20.1585 13.3122 20.241 15.2997C20.241 19.0452 16.9583 20.8857 14.661 20.8857C12.8228 20.8857 10.983 19.7097 10.2938 19.1217L6.8468 15.9732C6.42455 15.6455 5.38205 14.5625 4.9238 13.9392C3.67655 12.242 5.48105 11.0727 6.49505 11.3667C6.41555 11.3052 5.93405 10.5237 5.7038 10.1412C5.08505 8.89847 5.7038 8.07122 6.1613 7.84322C7.19855 7.32722 7.9613 7.90772 8.2013 8.22422C8.10905 8.06822 7.82105 7.43672 7.3568 6.27797C6.89255 5.11997 7.6403 4.40447 8.0723 4.19147C9.0098 3.75722 9.9008 4.30847 10.1235 4.80122C10.233 5.04197 10.821 6.33122 11.0775 6.89897C10.884 6.42797 10.5345 5.49122 10.4108 5.05847C10.1648 4.03847 10.7565 3.33947 11.1315 3.15947C11.6535 2.90972 12.7418 2.84447 13.1715 3.79247L13.1828 3.81722Z" fill="url(#paint29_radial_2_82)"/>
<path id="Vector_31" d="M14.4548 6.51052C15.018 7.66102 15.5805 8.69227 16.056 9.25702C16.1048 9.75952 16.1483 10.046 16.2683 10.4795C15.3195 9.53002 14.4008 7.45477 14.4548 6.50977V6.51052Z" fill="url(#paint30_radial_2_82)"/>
<g id="Group_2" filter="url(#filter0_f_2_82)">
<path id="Vector_32" d="M14.8185 9.33118C13.3658 9.91693 10.0785 11.8414 9.11255 16.1292" stroke="#FFC339" stroke-width="2" stroke-linecap="round"/>
</g>
</g>
</g>
<defs>
<filter id="filter0_f_2_82" x="6.1123" y="6.33093" width="11.7065" height="12.7985" filterUnits="userSpaceOnUse" color-interpolation-filters="sRGB">
<feFlood flood-opacity="0" result="BackgroundImageFix"/>
<feBlend mode="normal" in="SourceGraphic" in2="BackgroundImageFix" result="shape"/>
<feGaussianBlur stdDeviation="1" result="effect1_foregroundBlur_2_82"/>
</filter>
<radialGradient id="paint0_radial_2_82" cx="0" cy="0" r="1" gradientUnits="userSpaceOnUse" gradientTransform="translate(12.3705 8.88572) rotate(60.1006) scale(15.789 10.3147)">
<stop offset="0.003" stop-color="#FFC133"/>
<stop offset="0.698" stop-color="#FFC53F"/>
<stop offset="0.797" stop-color="#FFAD3E"/>
<stop offset="0.945" stop-color="#EC7D58"/>
</radialGradient>
<radialGradient id="paint1_radial_2_82" cx="0" cy="0" r="1" gradientUnits="userSpaceOnUse" gradientTransform="translate(20.241 12.3545) rotate(-93.012) scale(9.36758 3.58868)">
<stop offset="0.003" stop-color="#FFE849"/>
<stop offset="1" stop-color="#FFE647" stop-opacity="0"/>
</radialGradient>
<radialGradient id="paint2_radial_2_82" cx="0" cy="0" r="1" gradientUnits="userSpaceOnUse" gradientTransform="translate(19.1161 5.6511) rotate(99.682) scale(5.01677 1.92191)">
<stop offset="0.003" stop-color="#FFE849"/>
<stop offset="1" stop-color="#FFE647" stop-opacity="0"/>
</radialGradient>
<radialGradient id="paint3_radial_2_82" cx="0" cy="0" r="1" gradientUnits="userSpaceOnUse" gradientTransform="translate(16.0553 8.67201) scale(2.0291 8.22877)">
<stop stop-color="#EE9F2C"/>
<stop offset="1" stop-color="#EE9F2C" stop-opacity="0"/>
</radialGradient>
<radialGradient id="paint4_radial_2_82" cx="0" cy="0" r="1" gradientUnits="userSpaceOnUse" gradientTransform="translate(16.9463 11.8625) rotate(-94.0856) scale(3.41528 2.37218)">
<stop stop-color="#FFC93D"/>
<stop offset="1" stop-color="#FFC33A" stop-opacity="0"/>
</radialGradient>
<radialGradient id="paint5_radial_2_82" cx="0" cy="0" r="1" gradientUnits="userSpaceOnUse" gradientTransform="translate(15.0383 6.67772) rotate(151.024) scale(3.59001 7.21163)">
<stop offset="0.563" stop-color="#F09D2E" stop-opacity="0"/>
<stop offset="1" stop-color="#F09D2E"/>
</radialGradient>
<linearGradient id="paint6_linear_2_82" x1="13.2046" y1="10.3557" x2="13.2046" y2="8.41697" gradientUnits="userSpaceOnUse">
<stop stop-color="#FFC337"/>
<stop offset="1" stop-color="#FFC337" stop-opacity="0"/>
</linearGradient>
<radialGradient id="paint7_radial_2_82" cx="0" cy="0" r="1" gradientUnits="userSpaceOnUse" gradientTransform="translate(14.2883 3.82322) rotate(-13.4957) scale(2.41031 5.33007)">
<stop stop-color="#FFEC4C"/>
<stop offset="1" stop-color="#FFEC4C" stop-opacity="0"/>
</radialGradient>
<radialGradient id="paint8_radial_2_82" cx="0" cy="0" r="1" gradientUnits="userSpaceOnUse" gradientTransform="translate(10.3531 2.99972) rotate(33.3063) scale(2.35308 1.82437)">
<stop stop-color="#D99F2B"/>
<stop offset="1" stop-color="#D99F2B" stop-opacity="0"/>
</radialGradient>
<linearGradient id="paint9_linear_2_82" x1="10.7258" y1="7.73747" x2="11.8973" y2="7.17497" gradientUnits="userSpaceOnUse">
<stop stop-color="#A85300"/>
<stop offset="0.825" stop-color="#A85300" stop-opacity="0"/>
</linearGradient>
<radialGradient id="paint10_radial_2_82" cx="0" cy="0" r="1" gradientUnits="userSpaceOnUse" gradientTransform="translate(11.655 7.78695) rotate(149.148) scale(3.46061 7.22162)">
<stop offset="0.563" stop-color="#F09D2E" stop-opacity="0"/>
<stop offset="1" stop-color="#F09D2E"/>
</radialGradient>
<linearGradient id="paint11_linear_2_82" x1="9.92027" y1="11.5407" x2="9.92027" y2="9.5622" gradientUnits="userSpaceOnUse">
<stop stop-color="#FFC337"/>
<stop offset="1" stop-color="#FFC337" stop-opacity="0"/>
</linearGradient>
<radialGradient id="paint12_radial_2_82" cx="0" cy="0" r="1" gradientUnits="userSpaceOnUse" gradientTransform="translate(11.256 5.5812) rotate(-33.8929) scale(2.29661 6.99203)">
<stop stop-color="#FFEC4C"/>
<stop offset="1" stop-color="#FFEC4C" stop-opacity="0"/>
</radialGradient>
<radialGradient id="paint13_radial_2_82" cx="0" cy="0" r="1" gradientUnits="userSpaceOnUse" gradientTransform="translate(9.50702 8.41695) rotate(-24.9048) scale(2.89413 13.2149)">
<stop offset="0.598" stop-color="#F09D2E" stop-opacity="0"/>
<stop offset="1" stop-color="#F09D2E"/>
</radialGradient>
<radialGradient id="paint14_radial_2_82" cx="0" cy="0" r="1" gradientUnits="userSpaceOnUse" gradientTransform="translate(6.88202 4.03395) rotate(32.6006) scale(2.39259 1.90693)">
<stop stop-color="#D99F2B"/>
<stop offset="1" stop-color="#D99F2B" stop-opacity="0"/>
</radialGradient>
<linearGradient id="paint15_linear_2_82" x1="7.93652" y1="8.8857" x2="8.71652" y2="8.34045" gradientUnits="userSpaceOnUse">
<stop stop-color="#A85300"/>
<stop offset="0.825" stop-color="#A85300" stop-opacity="0"/>
</linearGradient>
<radialGradient id="paint16_radial_2_82" cx="0" cy="0" r="1" gradientUnits="userSpaceOnUse" gradientTransform="translate(9.64657 10.7869) rotate(137.351) scale(2.86693 5.61401)">
<stop offset="0.563" stop-color="#F09D2E" stop-opacity="0"/>
<stop offset="1" stop-color="#F09D2E"/>
</radialGradient>
<linearGradient id="paint17_linear_2_82" x1="8.00182" y1="13.9362" x2="8.00182" y2="12.2764" gradientUnits="userSpaceOnUse">
<stop stop-color="#FFC337"/>
<stop offset="1" stop-color="#FFC337" stop-opacity="0"/>
</linearGradient>
<radialGradient id="paint18_radial_2_82" cx="0" cy="0" r="1" gradientUnits="userSpaceOnUse" gradientTransform="translate(8.94382 8.32693) rotate(-12.2959) scale(2.18351 4.62527)">
<stop stop-color="#FFEC4C"/>
<stop offset="1" stop-color="#FFEC4C" stop-opacity="0"/>
</radialGradient>
<radialGradient id="paint19_radial_2_82" cx="0" cy="0" r="1" gradientUnits="userSpaceOnUse" gradientTransform="translate(7.61032 11.3157) rotate(-40.217) scale(3.0372 15.5272)">
<stop offset="0.598" stop-color="#F09D2E" stop-opacity="0"/>
<stop offset="1" stop-color="#F09D2E"/>
</radialGradient>
<radialGradient id="paint20_radial_2_82" cx="0" cy="0" r="1" gradientUnits="userSpaceOnUse" gradientTransform="translate(5.12032 7.63768) rotate(29.5035) scale(2.19649 1.65314)">
<stop stop-color="#D99F2B"/>
<stop offset="1" stop-color="#D99F2B" stop-opacity="0"/>
</radialGradient>
<radialGradient id="paint21_radial_2_82" cx="0" cy="0" r="1" gradientUnits="userSpaceOnUse" gradientTransform="translate(6.27232 11.9562) rotate(-45.7639) scale(1.24307 5.61261)">
<stop stop-color="#A85300"/>
<stop offset="0.825" stop-color="#A85300" stop-opacity="0"/>
</radialGradient>
<radialGradient id="paint22_radial_2_82" cx="0" cy="0" r="1" gradientUnits="userSpaceOnUse" gradientTransform="translate(9.00905 14.048) rotate(143.369) scale(2.81852 5.3032)">
<stop offset="0.563" stop-color="#F09D2E" stop-opacity="0"/>
<stop offset="1" stop-color="#F09D2E"/>
</radialGradient>
<radialGradient id="paint23_radial_2_82" cx="0" cy="0" r="1" gradientUnits="userSpaceOnUse" gradientTransform="translate(8.25455 11.9172) rotate(-9.97762) scale(2.32354 4.03656)">
<stop stop-color="#FFEC4C"/>
<stop offset="1" stop-color="#FFEC4C" stop-opacity="0"/>
</radialGradient>
<radialGradient id="paint24_radial_2_82" cx="0" cy="0" r="1" gradientUnits="userSpaceOnUse" gradientTransform="translate(6.82372 14.5054) rotate(-34.314) scale(3.01187 14.5411)">
<stop offset="0.598" stop-color="#F09D2E" stop-opacity="0"/>
<stop offset="1" stop-color="#F09D2E"/>
</radialGradient>
<radialGradient id="paint25_radial_2_82" cx="0" cy="0" r="1" gradientUnits="userSpaceOnUse" gradientTransform="translate(4.1528 11.3217) rotate(24.5479) scale(2.25428 1.49589)">
<stop stop-color="#D99F2B"/>
<stop offset="1" stop-color="#D99F2B" stop-opacity="0"/>
</radialGradient>
<linearGradient id="paint26_linear_2_82" x1="9.13205" y1="19.1982" x2="7.2443" y2="15.3372" gradientUnits="userSpaceOnUse">
<stop stop-color="#FFC337"/>
<stop offset="1" stop-color="#FFC337" stop-opacity="0"/>
</linearGradient>
<radialGradient id="paint27_radial_2_82" cx="0" cy="0" r="1" gradientUnits="userSpaceOnUse" gradientTransform="translate(15.882 7.90172) rotate(129.014) scale(13.031 21.074)">
<stop offset="0.872" stop-color="#F6814F" stop-opacity="0"/>
<stop offset="1" stop-color="#F7814F"/>
</radialGradient>
<radialGradient id="paint28_radial_2_82" cx="0" cy="0" r="1" gradientUnits="userSpaceOnUse" gradientTransform="translate(13.1633 8.04197) rotate(76.293) scale(13.8475 15.1937)">
<stop offset="0.853" stop-color="#F6814F" stop-opacity="0"/>
<stop offset="1" stop-color="#F7814F"/>
</radialGradient>
<radialGradient id="paint29_radial_2_82" cx="0" cy="0" r="1" gradientUnits="userSpaceOnUse" gradientTransform="translate(16.3035 4.52672) rotate(64.44) scale(2.39017 2.1308)">
<stop stop-color="#D99F2B"/>
<stop offset="1" stop-color="#D99F2B" stop-opacity="0"/>
</radialGradient>
<radialGradient id="paint30_radial_2_82" cx="0" cy="0" r="1" gradientUnits="userSpaceOnUse" gradientTransform="translate(16.269 9.09624) rotate(149.254) scale(0.9102 2.81651)">
<stop offset="0.201" stop-color="#B4813D"/>
<stop offset="1" stop-color="#B4813D" stop-opacity="0"/>
</radialGradient>
</defs>
</svg>
