<svg width="32" height="32" viewBox="0 0 32 32" fill="none" xmlns="http://www.w3.org/2000/svg">
<g id="GLX Token/icon" clip-path="url(#clip0_238_89)">
<g id="Group">
<g id="Group_2">
<g id="Vector" filter="url(#filter0_d_238_89)">
<path d="M16 30C24.2843 30 31 23.2843 31 15C31 6.71573 24.2843 0 16 0C7.71573 0 1 6.71573 1 15C1 23.2843 7.71573 30 16 30Z" fill="black"/>
</g>
<path id="Vector_2" d="M16 30C24.2843 30 31 23.2843 31 15C31 6.71573 24.2843 0 16 0C7.71573 0 1 6.71573 1 15C1 23.2843 7.71573 30 16 30Z" fill="#005396"/>
<path id="Vector_3" style="mix-blend-mode:soft-light" d="M16 30C24.2843 30 31 23.2843 31 15C31 6.71573 24.2843 0 16 0C7.71573 0 1 6.71573 1 15C1 23.2843 7.71573 30 16 30Z" fill="url(#paint0_linear_238_89)"/>
<path id="Vector_4" d="M16 29.5C24.0081 29.5 30.5 23.0081 30.5 15C30.5 6.99187 24.0081 0.5 16 0.5C7.99187 0.5 1.5 6.99187 1.5 15C1.5 23.0081 7.99187 29.5 16 29.5Z" stroke="black" stroke-opacity="0.097"/>
</g>
<path id="Vector_5" d="M12.634 4.54905C13.586 4.24905 14.577 4.06005 15.577 4.02905C16.949 3.96605 18.329 4.18905 19.626 4.63105C21.726 5.37105 23.594 6.76005 24.891 8.56905C25.194 8.97105 25.449 9.40605 25.694 9.84605C25.98 10.4031 26.237 10.9771 26.431 11.5711C26.689 12.3891 26.88 13.2341 26.94 14.0911C26.971 14.2771 26.951 14.4661 26.977 14.6511C26.986 14.8831 26.983 15.1141 26.977 15.3491C26.951 15.5341 26.971 15.7231 26.94 15.9091C26.8783 16.6815 26.7328 17.445 26.506 18.1861C26.3206 18.7993 26.0813 19.3949 25.791 19.9661C24.7095 22.0894 22.9693 23.8054 20.831 24.8571C20.234 25.1491 19.611 25.3971 18.969 25.5661C17.891 25.8741 16.769 26.0061 15.651 25.9741C15.466 25.9491 15.274 25.9691 15.091 25.9371C14.254 25.8801 13.431 25.6971 12.631 25.4491C11.0259 24.9279 9.56171 24.0454 8.35125 22.8694C7.1408 21.6935 6.21633 20.2555 5.649 18.6661C5.291 17.6261 5.063 16.5371 5.034 15.4341C4.997 14.9061 5.037 14.3741 5.08 13.8461C5.16 13.0661 5.337 12.2941 5.577 11.5491C6.30715 9.36345 7.70308 7.46119 9.56901 6.10905C9.971 5.80605 10.406 5.54905 10.846 5.30605C11.419 5.00241 12.0172 4.74912 12.634 4.54905ZM14.751 8.51705V11.0861C14.746 11.1311 14.789 11.1571 14.811 11.1891C15.206 11.6031 15.603 12.0141 15.997 12.4291C15.9941 11.1251 15.9941 9.82105 15.997 8.51705C15.583 8.51705 15.166 8.51405 14.751 8.51705ZM9.334 9.84605C9.429 9.90905 9.497 10.0001 9.577 10.0771C10.426 10.9341 11.277 11.7891 12.123 12.6511C12.897 13.4341 13.674 14.2141 14.446 14.9971C13.511 15.9541 12.56 16.8941 11.629 17.8511C10.883 18.6031 10.137 19.3541 9.394 20.1061C9.37452 20.1217 9.35451 20.1367 9.334 20.1511C10.431 20.1511 11.531 20.1541 12.631 20.1461C13.754 18.9711 14.883 17.8001 16.003 16.6231L19.374 20.1461C20.471 20.1541 21.569 20.1491 22.666 20.1511C22.497 20.0171 22.366 19.8491 22.209 19.7031C21.423 18.9091 20.631 18.1141 19.849 17.3171C19.089 16.5431 18.314 15.7801 17.56 15.0001C17.743 14.8171 17.914 14.6261 18.103 14.4461C19.54 12.9971 20.971 11.5431 22.409 10.0941C22.494 10.0111 22.566 9.91405 22.666 9.84605C21.566 9.84605 20.469 9.84305 19.371 9.84905C18.249 11.0231 17.123 12.1941 16 13.3691C14.88 12.1911 13.751 11.0201 12.629 9.84905C11.531 9.84605 10.431 9.84605 9.334 9.84605ZM16.006 17.5601C16.006 18.8691 16.009 20.1741 16.003 21.4831C16.42 21.4801 16.837 21.4831 17.251 21.4831V18.9101C17.2527 18.8964 17.251 18.8825 17.2461 18.8696C17.2413 18.8567 17.2333 18.8452 17.223 18.8361C17.011 18.6081 16.789 18.3931 16.58 18.1651C16.391 17.9591 16.189 17.7711 16.006 17.5601Z" fill="white"/>
</g>
</g>
<defs>
<filter id="filter0_d_238_89" x="0" y="-0.5" width="32" height="32" filterUnits="userSpaceOnUse" color-interpolation-filters="sRGB">
<feFlood flood-opacity="0" result="BackgroundImageFix"/>
<feColorMatrix in="SourceAlpha" type="matrix" values="0 0 0 0 0 0 0 0 0 0 0 0 0 0 0 0 0 0 127 0" result="hardAlpha"/>
<feOffset dy="0.5"/>
<feGaussianBlur stdDeviation="0.5"/>
<feComposite in2="hardAlpha" operator="out"/>
<feColorMatrix type="matrix" values="0 0 0 0 0 0 0 0 0 0 0 0 0 0 0 0 0 0 0.199474 0"/>
<feBlend mode="normal" in2="BackgroundImageFix" result="effect1_dropShadow_238_89"/>
<feBlend mode="normal" in="SourceGraphic" in2="effect1_dropShadow_238_89" result="shape"/>
</filter>
<linearGradient id="paint0_linear_238_89" x1="1501" y1="0" x2="1501" y2="3000" gradientUnits="userSpaceOnUse">
<stop stop-color="white" stop-opacity="0.5"/>
<stop offset="1" stop-opacity="0.5"/>
</linearGradient>
<clipPath id="clip0_238_89">
<rect width="32" height="32" fill="white"/>
</clipPath>
</defs>
</svg>
