<svg width="65" height="64" viewBox="0 0 65 64" fill="none" xmlns="http://www.w3.org/2000/svg">
<g id="ic:baseline-discord">
<path id="Vector" d="M51.8867 14.2133C48.34 12.56 44.5 11.36 40.5 10.6666C40.4649 10.6655 40.43 10.6721 40.3978 10.6859C40.3655 10.6997 40.3367 10.7205 40.3133 10.7466C39.8333 11.6266 39.2733 12.7733 38.9 13.6533C34.6573 13.0133 30.3427 13.0133 26.1 13.6533C25.7267 12.7466 25.1667 11.6266 24.66 10.7466C24.6333 10.6933 24.5533 10.6666 24.4733 10.6666C20.4733 11.36 16.66 12.56 13.0867 14.2133C13.06 14.2133 13.0333 14.24 13.0067 14.2666C5.75332 25.12 3.75332 35.68 4.73999 46.1333C4.73999 46.1866 4.76665 46.24 4.81999 46.2666C9.61999 49.7866 14.2333 51.92 18.7933 53.3333C18.8733 53.36 18.9533 53.3333 18.98 53.28C20.0467 51.8133 21.0067 50.2666 21.8333 48.64C21.8867 48.5333 21.8333 48.4266 21.7267 48.4C20.2067 47.8133 18.7667 47.12 17.3533 46.32C17.2467 46.2666 17.2467 46.1066 17.3267 46.0266C17.62 45.8133 17.9133 45.5733 18.2067 45.36C18.26 45.3066 18.34 45.3066 18.3933 45.3333C27.5667 49.52 37.46 49.52 46.5267 45.3333C46.58 45.3066 46.66 45.3066 46.7133 45.36C47.0067 45.6 47.3 45.8133 47.5933 46.0533C47.7 46.1333 47.7 46.2933 47.5666 46.3466C46.18 47.1733 44.7133 47.84 43.1933 48.4266C43.0867 48.4533 43.06 48.5866 43.0867 48.6666C43.94 50.2933 44.9 51.84 45.94 53.3066C46.02 53.3333 46.1 53.36 46.18 53.3333C50.7666 51.92 55.38 49.7866 60.18 46.2666C60.2333 46.24 60.26 46.1866 60.26 46.1333C61.4333 34.0533 58.3133 23.5733 51.9933 14.2666C51.9666 14.24 51.94 14.2133 51.8867 14.2133ZM23.22 39.76C20.4733 39.76 18.18 37.2266 18.18 34.1066C18.18 30.9866 20.42 28.4533 23.22 28.4533C26.0467 28.4533 28.2867 31.0133 28.26 34.1066C28.26 37.2266 26.02 39.76 23.22 39.76ZM41.8067 39.76C39.06 39.76 36.7667 37.2266 36.7667 34.1066C36.7667 30.9866 39.0067 28.4533 41.8067 28.4533C44.6333 28.4533 46.8733 31.0133 46.8466 34.1066C46.8466 37.2266 44.6333 39.76 41.8067 39.76Z" fill="white"/>
</g>
</svg>
