<svg width="80" height="80" viewBox="0 0 80 80" fill="none" xmlns="http://www.w3.org/2000/svg">
<g id="ic:round-account-balance-wallet">
<path id="Vector" d="M33.3333 53.3333V26.6667C33.3333 24.8986 34.0357 23.2029 35.286 21.9526C36.5362 20.7024 38.2319 20 40 20H70V16.6667C70 13 67 10 63.3333 10H16.6667C14.8986 10 13.2029 10.7024 11.9526 11.9526C10.7024 13.2029 10 14.8986 10 16.6667V63.3333C10 65.1014 10.7024 66.7971 11.9526 68.0474C13.2029 69.2976 14.8986 70 16.6667 70H63.3333C67 70 70 67 70 63.3333V60H40C38.2319 60 36.5362 59.2976 35.286 58.0474C34.0357 56.7971 33.3333 55.1014 33.3333 53.3333ZM43.3333 26.6667C41.5 26.6667 40 28.1667 40 30V50C40 51.8333 41.5 53.3333 43.3333 53.3333H73.3333V26.6667H43.3333ZM53.3333 45C50.5667 45 48.3333 42.7667 48.3333 40C48.3333 37.2333 50.5667 35 53.3333 35C56.1 35 58.3333 37.2333 58.3333 40C58.3333 42.7667 56.1 45 53.3333 45Z" fill="white"/>
</g>
</svg>
