<svg width="32" height="32" viewBox="0 0 32 32" fill="none" xmlns="http://www.w3.org/2000/svg">
<g id="Kyber Network/icon" clip-path="url(#clip0_238_52)">
<g id="Group">
<g id="Vector" filter="url(#filter0_d_238_52)">
<path d="M16 30C24.2843 30 31 23.2843 31 15C31 6.71573 24.2843 0 16 0C7.71573 0 1 6.71573 1 15C1 23.2843 7.71573 30 16 30Z" fill="black"/>
</g>
<path id="Vector_2" d="M16 30C24.2843 30 31 23.2843 31 15C31 6.71573 24.2843 0 16 0C7.71573 0 1 6.71573 1 15C1 23.2843 7.71573 30 16 30Z" fill="#31CB9E"/>
<path id="Vector_3" style="mix-blend-mode:soft-light" d="M16 30C24.2843 30 31 23.2843 31 15C31 6.71573 24.2843 0 16 0C7.71573 0 1 6.71573 1 15C1 23.2843 7.71573 30 16 30Z" fill="url(#paint0_linear_238_52)"/>
<path id="Vector_4" d="M16 29.5C24.0081 29.5 30.5 23.0081 30.5 15C30.5 6.99187 24.0081 0.5 16 0.5C7.99187 0.5 1.5 6.99187 1.5 15C1.5 23.0081 7.99187 29.5 16 29.5Z" stroke="black" stroke-opacity="0.097"/>
<g id="Group_2">
<path id="Vector_5" d="M14.927 15.162L22.647 19.585C22.7091 19.6224 22.7801 19.6424 22.8526 19.6432C22.925 19.644 22.9964 19.6255 23.0594 19.5895C23.1223 19.5536 23.1745 19.5015 23.2107 19.4387C23.2468 19.3759 23.2655 19.3045 23.265 19.232V11.086C23.266 11.0134 23.2474 10.9419 23.2113 10.8789C23.1752 10.816 23.1228 10.7639 23.0596 10.7281C22.9964 10.6923 22.9248 10.6742 22.8522 10.6756C22.7796 10.677 22.7087 10.6979 22.647 10.736L14.927 15.162ZM22.484 8.77905L17.206 4.89705C17.1514 4.85506 17.0872 4.82716 17.0193 4.81581C16.9513 4.80445 16.8816 4.80998 16.8163 4.83191C16.751 4.85385 16.6921 4.89151 16.6448 4.94159C16.5975 4.99166 16.5632 5.0526 16.545 5.11905L14.618 13.766L22.438 9.44305C22.4973 9.41223 22.5476 9.36671 22.5843 9.31083C22.6209 9.25495 22.6426 9.1906 22.6472 9.12395C22.6518 9.05729 22.6392 8.99057 22.6106 8.93017C22.5821 8.86978 22.5385 8.81774 22.484 8.77905ZM17.2 25.424L22.484 21.542C22.5394 21.5031 22.5838 21.4505 22.613 21.3894C22.6423 21.3284 22.6553 21.2608 22.6509 21.1932C22.6465 21.1256 22.6248 21.0603 22.5878 21.0035C22.5509 20.9468 22.5 20.9005 22.44 20.869L14.618 16.546L16.545 25.193C16.5609 25.2603 16.5934 25.3225 16.6393 25.3741C16.6853 25.4257 16.7433 25.4651 16.8083 25.4887C16.8733 25.5123 16.943 25.5194 17.0114 25.5093C17.0798 25.4993 17.1446 25.4724 17.2 25.431" fill="white"/>
<path id="Vector_6" d="M12.92 15.002L14.927 5.61297C14.9425 5.53511 14.9343 5.45441 14.9035 5.38123C14.8728 5.30806 14.8208 5.24575 14.7544 5.20232C14.688 5.15889 14.61 5.13631 14.5307 5.1375C14.4513 5.13868 14.3741 5.16357 14.309 5.20897L9.167 9.15197C9.03665 9.2519 8.93119 9.38062 8.85885 9.52808C8.78651 9.67553 8.74925 9.83772 8.75 10.002V20.008C8.745 20.345 8.9 20.664 9.167 20.869L14.284 24.801C14.3492 24.8465 14.4265 24.8714 14.506 24.8726C14.5855 24.8738 14.6635 24.8511 14.73 24.8075C14.7965 24.764 14.8484 24.7015 14.8791 24.6281C14.9097 24.5548 14.9177 24.4739 14.902 24.396L12.919 15.002H12.92Z" fill="white"/>
</g>
</g>
</g>
<defs>
<filter id="filter0_d_238_52" x="0" y="-0.5" width="32" height="32" filterUnits="userSpaceOnUse" color-interpolation-filters="sRGB">
<feFlood flood-opacity="0" result="BackgroundImageFix"/>
<feColorMatrix in="SourceAlpha" type="matrix" values="0 0 0 0 0 0 0 0 0 0 0 0 0 0 0 0 0 0 127 0" result="hardAlpha"/>
<feOffset dy="0.5"/>
<feGaussianBlur stdDeviation="0.5"/>
<feComposite in2="hardAlpha" operator="out"/>
<feColorMatrix type="matrix" values="0 0 0 0 0 0 0 0 0 0 0 0 0 0 0 0 0 0 0.199474 0"/>
<feBlend mode="normal" in2="BackgroundImageFix" result="effect1_dropShadow_238_52"/>
<feBlend mode="normal" in="SourceGraphic" in2="effect1_dropShadow_238_52" result="shape"/>
</filter>
<linearGradient id="paint0_linear_238_52" x1="1501" y1="0" x2="1501" y2="3000" gradientUnits="userSpaceOnUse">
<stop stop-color="white" stop-opacity="0.5"/>
<stop offset="1" stop-opacity="0.5"/>
</linearGradient>
<clipPath id="clip0_238_52">
<rect width="32" height="32" fill="white"/>
</clipPath>
</defs>
</svg>
