<svg width="65" height="64" viewBox="0 0 65 64" fill="none" xmlns="http://www.w3.org/2000/svg">
<g id="line-md:reddit">
<g id="Mask group">
<mask id="mask0_4_6237" style="mask-type:luminance" maskUnits="userSpaceOnUse" x="5" y="6" width="55" height="49">
<g id="Group">
<g id="Group_2">
<path id="Vector" d="M32.5 53.3335C44.2821 53.3335 53.8333 47.0177 53.8333 39.2268C53.8333 31.4359 44.2821 25.1201 32.5 25.1201C20.7179 25.1201 11.1667 31.4359 11.1667 39.2268C11.1667 47.0177 20.7179 53.3335 32.5 53.3335Z" fill="white" stroke="white" stroke-width="2" stroke-linecap="round" stroke-linejoin="round"/>
<path id="Vector_2" d="M11.0067 37.8934C14.3056 37.8934 16.98 35.2191 16.98 31.9201C16.98 28.6211 14.3056 25.9468 11.0067 25.9468C7.70768 25.9468 5.03333 28.6211 5.03333 31.9201C5.03333 35.2191 7.70768 37.8934 11.0067 37.8934Z" fill="white"/>
<path id="Vector_3" d="M53.9933 37.8934C57.2923 37.8934 59.9667 35.2191 59.9667 31.9201C59.9667 28.6211 57.2923 25.9468 53.9933 25.9468C50.6943 25.9468 48.02 28.6211 48.02 31.9201C48.02 35.2191 50.6943 37.8934 53.9933 37.8934Z" fill="white"/>
<path id="Vector_4" d="M49.7 15.5735C52.0711 15.5735 53.9933 13.6513 53.9933 11.2801C53.9933 8.90901 52.0711 6.98682 49.7 6.98682C47.3288 6.98682 45.4066 8.90901 45.4066 11.2801C45.4066 13.6513 47.3288 15.5735 49.7 15.5735Z" fill="white"/>
</g>
<path id="Vector_5" d="M32.5 23.3335L35.6467 8.29346L49.06 11.1468" stroke="white" stroke-width="0.8" stroke-linecap="round" stroke-linejoin="round"/>
<g id="Group_3">
<path id="Vector_6" d="M23.0333 40.5334C25.4045 40.5334 27.3267 38.6113 27.3267 36.2401C27.3267 33.869 25.4045 31.9468 23.0333 31.9468C20.6622 31.9468 18.74 33.869 18.74 36.2401C18.74 38.6113 20.6622 40.5334 23.0333 40.5334Z" fill="black"/>
<path id="Vector_7" d="M41.9666 40.5334C44.3378 40.5334 46.26 38.6113 46.26 36.2401C46.26 33.869 44.3378 31.9468 41.9666 31.9468C39.5955 31.9468 37.6733 33.869 37.6733 36.2401C37.6733 38.6113 39.5955 40.5334 41.9666 40.5334Z" fill="black"/>
</g>
<path id="Vector_8" d="M23.0867 46.7202C23.0867 46.7202 25.5933 49.5469 32.5 49.5469C39.38 49.5469 41.9133 46.7202 41.9133 46.7202" stroke="black" stroke-width="0.8" stroke-linecap="round"/>
</g>
</mask>
<g mask="url(#mask0_4_6237)">
<path id="Vector_9" d="M64.5 0H0.5V64H64.5V0Z" fill="white"/>
</g>
</g>
</g>
</svg>
