<svg width="80" height="80" viewBox="0 0 80 80" fill="none" xmlns="http://www.w3.org/2000/svg">
<g id="material-symbols:magic-exchange-rounded">
<path id="Vector" d="M34.8333 45.1666L25 40.7499C24.6667 40.5833 24.5 40.3333 24.5 39.9999C24.5 39.6666 24.6667 39.4166 25 39.2499L34.8333 34.7499L39.25 24.9999C39.4167 24.6666 39.6667 24.4999 40 24.4999C40.3333 24.4999 40.5833 24.6666 40.75 24.9999L45.25 34.7499L55 39.2499C55.3333 39.4166 55.5 39.6666 55.5 39.9999C55.5 40.3333 55.3333 40.5833 55 40.7499L45.25 45.1666L40.75 54.9999C40.5833 55.3333 40.3333 55.4999 40 55.4999C39.6667 55.4999 39.4167 55.3333 39.25 54.9999L34.8333 45.1666ZM40 76.6666C33.7778 76.6666 28.0555 75.2499 22.8333 72.4166C17.6111 69.5833 13.3333 65.8055 9.99999 61.0833V66.6666C9.99999 67.611 9.67999 68.4033 9.03999 69.0433C8.39999 69.6833 7.60888 70.0021 6.66666 69.9999C5.72221 69.9999 4.92999 69.6799 4.28999 69.0399C3.64999 68.3999 3.3311 67.6088 3.33332 66.6666V53.3333C3.33332 52.3888 3.65332 51.5966 4.29332 50.9566C4.93332 50.3166 5.72444 49.9977 6.66666 49.9999H20C20.9444 49.9999 21.7367 50.3199 22.3767 50.9599C23.0167 51.5999 23.3355 52.391 23.3333 53.3333C23.3333 54.2777 23.0133 55.0699 22.3733 55.7099C21.7333 56.3499 20.9422 56.6688 20 56.6666H15.0833C17.75 60.6666 21.2644 63.8888 25.6267 66.3333C29.9889 68.7777 34.78 69.9999 40 69.9999C47.8333 69.9999 54.57 67.3888 60.21 62.1666C65.85 56.9444 69.0578 50.5277 69.8333 42.9166C69.9444 42.0277 70.3333 41.3188 71 40.7899C71.6667 40.261 72.4444 39.9977 73.3333 39.9999C74.2778 39.9999 75.0833 40.2921 75.75 40.8766C76.4167 41.461 76.6944 42.1688 76.5833 42.9999C76.1944 47.7221 74.9722 52.1244 72.9167 56.2066C70.8611 60.2888 68.1944 63.8444 64.9167 66.8733C61.6389 69.9021 57.8744 72.291 53.6233 74.0399C49.3722 75.7888 44.8311 76.6644 40 76.6666ZM40 9.99992C32.1667 9.99992 25.4311 12.611 19.7933 17.8333C14.1555 23.0555 10.9467 29.4721 10.1667 37.0833C10.0555 37.9721 9.66666 38.681 8.99999 39.2099C8.33332 39.7388 7.55555 40.0021 6.66666 39.9999C5.72221 39.9999 4.91666 39.7077 4.24999 39.1233C3.58332 38.5388 3.30555 37.831 3.41666 36.9999C3.80555 32.2777 5.02777 27.8755 7.08332 23.7933C9.13888 19.711 11.8055 16.1555 15.0833 13.1266C18.3611 10.0977 22.1255 7.70881 26.3767 5.95992C30.6278 4.21103 35.1689 3.33547 40 3.33325C46.2222 3.33325 51.9444 4.74992 57.1667 7.58325C62.3889 10.4166 66.6667 14.1944 70 18.9166V13.3333C70 12.3888 70.32 11.5977 70.96 10.9599C71.6 10.3221 72.3911 10.0021 73.3333 9.99992C74.2778 9.99992 75.07 10.3199 75.71 10.9599C76.35 11.5999 76.6689 12.391 76.6667 13.3333V26.6666C76.6667 27.611 76.3467 28.4033 75.7067 29.0433C75.0667 29.6833 74.2755 30.0021 73.3333 29.9999H60C59.0555 29.9999 58.2633 29.6799 57.6233 29.0399C56.9833 28.3999 56.6644 27.6088 56.6667 26.6666C56.6667 25.7221 56.9867 24.9299 57.6267 24.2899C58.2667 23.6499 59.0578 23.331 60 23.3333H64.9167C62.25 19.3333 58.7355 16.111 54.3733 13.6666C50.0111 11.2221 45.22 9.99992 40 9.99992Z" fill="white"/>
</g>
</svg>
