<svg width="32" height="32" viewBox="0 0 32 32" fill="none" xmlns="http://www.w3.org/2000/svg">
<g id="PACcoin/icon" clip-path="url(#clip0_238_81)">
<g id="Group">
<g id="Group_2">
<g id="Vector" filter="url(#filter0_d_238_81)">
<path d="M16 30C24.2843 30 31 23.2843 31 15C31 6.71573 24.2843 0 16 0C7.71573 0 1 6.71573 1 15C1 23.2843 7.71573 30 16 30Z" fill="black"/>
</g>
<path id="Vector_2" d="M16 30C24.2843 30 31 23.2843 31 15C31 6.71573 24.2843 0 16 0C7.71573 0 1 6.71573 1 15C1 23.2843 7.71573 30 16 30Z" fill="#F5EB16"/>
<path id="Vector_3" style="mix-blend-mode:soft-light" d="M16 30C24.2843 30 31 23.2843 31 15C31 6.71573 24.2843 0 16 0C7.71573 0 1 6.71573 1 15C1 23.2843 7.71573 30 16 30Z" fill="url(#paint0_linear_238_81)"/>
<path id="Vector_4" d="M16 29.5C24.0081 29.5 30.5 23.0081 30.5 15C30.5 6.99187 24.0081 0.5 16 0.5C7.99187 0.5 1.5 6.99187 1.5 15C1.5 23.0081 7.99187 29.5 16 29.5Z" stroke="black" stroke-opacity="0.097"/>
</g>
<path id="Vector_5" d="M15.94 4C9.898 4.001 5 8.901 5 14.945C5.001 20.988 9.901 25.886 15.945 25.885C21.988 25.884 26.886 20.984 26.885 14.941C26.8845 12.0389 25.7312 9.25588 23.6788 7.20407C21.6264 5.15226 18.8431 3.99973 15.941 4H15.94ZM11.497 8.794C11.4978 8.7642 11.5103 8.73593 11.5319 8.71532C11.5534 8.69472 11.5822 8.68346 11.612 8.684H16.17C17.1264 8.66613 18.0747 8.86296 18.945 9.26C19.111 9.34 19.273 9.43 19.429 9.528L16.462 11.226H14.914C14.8992 11.2263 14.8845 11.2294 14.8709 11.2354C14.8573 11.2413 14.845 11.2498 14.8347 11.2605C14.8244 11.2712 14.8163 11.2838 14.8108 11.2976C14.8054 11.3114 14.8027 11.3262 14.803 11.341V12.195L11.497 14.108V8.794ZM10.27 18.4L8.288 16.398L14.815 12.633V15.073C14.8158 15.1028 14.8283 15.1311 14.8499 15.1517C14.8714 15.1723 14.9002 15.1835 14.93 15.183H15.861L10.276 18.4H10.27ZM20.043 16.539C19.087 17.339 17.773 17.739 16.103 17.739H14.913C14.8834 17.7393 14.855 17.7511 14.8341 17.7721C14.8131 17.793 14.8013 17.8214 14.801 17.851V20.315L13.142 21.27L11.592 22.166L11.495 22.221V18.136L16.63 15.181C17.07 15.168 17.49 15.002 17.82 14.711C17.9366 14.5948 18.0344 14.4612 18.11 14.315L21.391 12.416C21.4458 12.7169 21.4729 13.0222 21.472 13.328C21.476 14.669 21 15.74 20.043 16.539ZM18.283 13.772C18.3049 13.631 18.3162 13.4886 18.317 13.346C18.3448 12.788 18.1609 12.2401 17.802 11.812C17.6004 11.5881 17.3419 11.4229 17.054 11.334L21.613 8.702L23.613 10.704L18.283 13.772Z" fill="white"/>
</g>
</g>
<defs>
<filter id="filter0_d_238_81" x="0" y="-0.5" width="32" height="32" filterUnits="userSpaceOnUse" color-interpolation-filters="sRGB">
<feFlood flood-opacity="0" result="BackgroundImageFix"/>
<feColorMatrix in="SourceAlpha" type="matrix" values="0 0 0 0 0 0 0 0 0 0 0 0 0 0 0 0 0 0 127 0" result="hardAlpha"/>
<feOffset dy="0.5"/>
<feGaussianBlur stdDeviation="0.5"/>
<feComposite in2="hardAlpha" operator="out"/>
<feColorMatrix type="matrix" values="0 0 0 0 0 0 0 0 0 0 0 0 0 0 0 0 0 0 0.199474 0"/>
<feBlend mode="normal" in2="BackgroundImageFix" result="effect1_dropShadow_238_81"/>
<feBlend mode="normal" in="SourceGraphic" in2="effect1_dropShadow_238_81" result="shape"/>
</filter>
<linearGradient id="paint0_linear_238_81" x1="1501" y1="0" x2="1501" y2="3000" gradientUnits="userSpaceOnUse">
<stop stop-color="white" stop-opacity="0.5"/>
<stop offset="1" stop-opacity="0.5"/>
</linearGradient>
<clipPath id="clip0_238_81">
<rect width="32" height="32" fill="white"/>
</clipPath>
</defs>
</svg>
