<svg width="33" height="32" viewBox="0 0 33 32" fill="none" xmlns="http://www.w3.org/2000/svg">
<g id="ph:dot-bold">
<path id="Vector" d="M18.4202 16.1473C18.4202 16.5313 18.3064 16.9067 18.093 17.226C17.8796 17.5454 17.5764 17.7942 17.2216 17.9412C16.8668 18.0882 16.4764 18.1266 16.0997 18.0517C15.7231 17.9768 15.3771 17.7918 15.1055 17.5203C14.834 17.2487 14.649 16.9028 14.5741 16.5261C14.4992 16.1494 14.5377 15.759 14.6846 15.4042C14.8316 15.0494 15.0805 14.7462 15.3998 14.5328C15.7191 14.3194 16.0945 14.2056 16.4785 14.2056C16.9935 14.2056 17.4874 14.4101 17.8515 14.7743C18.2157 15.1384 18.4202 15.6323 18.4202 16.1473Z" fill="white"/>
</g>
</svg>
