<svg width="32" height="32" viewBox="0 0 32 32" fill="none" xmlns="http://www.w3.org/2000/svg">
<g id="Revain/icon" clip-path="url(#clip0_238_61)">
<g id="Group">
<g id="Vector" filter="url(#filter0_d_238_61)">
<path d="M16 30C24.2843 30 31 23.2843 31 15C31 6.71573 24.2843 0 16 0C7.71573 0 1 6.71573 1 15C1 23.2843 7.71573 30 16 30Z" fill="black"/>
</g>
<path id="Vector_2" d="M16 30C24.2843 30 31 23.2843 31 15C31 6.71573 24.2843 0 16 0C7.71573 0 1 6.71573 1 15C1 23.2843 7.71573 30 16 30Z" fill="#771A4E"/>
<path id="Vector_3" style="mix-blend-mode:soft-light" d="M16 30C24.2843 30 31 23.2843 31 15C31 6.71573 24.2843 0 16 0C7.71573 0 1 6.71573 1 15C1 23.2843 7.71573 30 16 30Z" fill="url(#paint0_linear_238_61)"/>
<path id="Vector_4" d="M16 29.5C24.0081 29.5 30.5 23.0081 30.5 15C30.5 6.99187 24.0081 0.5 16 0.5C7.99187 0.5 1.5 6.99187 1.5 15C1.5 23.0081 7.99187 29.5 16 29.5Z" stroke="black" stroke-opacity="0.097"/>
<g id="Vector_5" filter="url(#filter1_d_238_61)">
<path d="M10.5 23.638L13.967 21.826V9.745L18.919 12.523L15.205 14.456V18.443L23.5 24V20.255L18.424 16.752L22.633 14.577V10.711L13.967 6L10.5 7.812V23.638Z" fill="black"/>
</g>
<path id="Vector_6" d="M10.5 23.638L13.967 21.826V9.745L18.919 12.523L15.205 14.456V18.443L23.5 24V20.255L18.424 16.752L22.633 14.577V10.711L13.967 6L10.5 7.812V23.638Z" fill="white"/>
</g>
</g>
<defs>
<filter id="filter0_d_238_61" x="0" y="-0.5" width="32" height="32" filterUnits="userSpaceOnUse" color-interpolation-filters="sRGB">
<feFlood flood-opacity="0" result="BackgroundImageFix"/>
<feColorMatrix in="SourceAlpha" type="matrix" values="0 0 0 0 0 0 0 0 0 0 0 0 0 0 0 0 0 0 127 0" result="hardAlpha"/>
<feOffset dy="0.5"/>
<feGaussianBlur stdDeviation="0.5"/>
<feComposite in2="hardAlpha" operator="out"/>
<feColorMatrix type="matrix" values="0 0 0 0 0 0 0 0 0 0 0 0 0 0 0 0 0 0 0.199474 0"/>
<feBlend mode="normal" in2="BackgroundImageFix" result="effect1_dropShadow_238_61"/>
<feBlend mode="normal" in="SourceGraphic" in2="effect1_dropShadow_238_61" result="shape"/>
</filter>
<filter id="filter1_d_238_61" x="9.5" y="5.5" width="15" height="20" filterUnits="userSpaceOnUse" color-interpolation-filters="sRGB">
<feFlood flood-opacity="0" result="BackgroundImageFix"/>
<feColorMatrix in="SourceAlpha" type="matrix" values="0 0 0 0 0 0 0 0 0 0 0 0 0 0 0 0 0 0 127 0" result="hardAlpha"/>
<feOffset dy="0.5"/>
<feGaussianBlur stdDeviation="0.5"/>
<feColorMatrix type="matrix" values="0 0 0 0 0 0 0 0 0 0 0 0 0 0 0 0 0 0 0.204257 0"/>
<feBlend mode="normal" in2="BackgroundImageFix" result="effect1_dropShadow_238_61"/>
<feBlend mode="normal" in="SourceGraphic" in2="effect1_dropShadow_238_61" result="shape"/>
</filter>
<linearGradient id="paint0_linear_238_61" x1="1501" y1="0" x2="1501" y2="3000" gradientUnits="userSpaceOnUse">
<stop stop-color="white" stop-opacity="0.5"/>
<stop offset="1" stop-opacity="0.5"/>
</linearGradient>
<clipPath id="clip0_238_61">
<rect width="32" height="32" fill="white"/>
</clipPath>
</defs>
</svg>
