<svg width="32" height="32" viewBox="0 0 32 32" fill="none" xmlns="http://www.w3.org/2000/svg">
<g id="Startcoin/icon" clip-path="url(#clip0_238_44)">
<g id="Group">
<g id="Vector" filter="url(#filter0_d_238_44)">
<path d="M16 30C24.2843 30 31 23.2843 31 15C31 6.71573 24.2843 0 16 0C7.71573 0 1 6.71573 1 15C1 23.2843 7.71573 30 16 30Z" fill="black"/>
</g>
<path id="Vector_2" d="M16 30C24.2843 30 31 23.2843 31 15C31 6.71573 24.2843 0 16 0C7.71573 0 1 6.71573 1 15C1 23.2843 7.71573 30 16 30Z" fill="#01AEF0"/>
<path id="Vector_3" style="mix-blend-mode:soft-light" d="M16 30C24.2843 30 31 23.2843 31 15C31 6.71573 24.2843 0 16 0C7.71573 0 1 6.71573 1 15C1 23.2843 7.71573 30 16 30Z" fill="url(#paint0_linear_238_44)"/>
<path id="Vector_4" d="M16 29.5C24.0081 29.5 30.5 23.0081 30.5 15C30.5 6.99187 24.0081 0.5 16 0.5C7.99187 0.5 1.5 6.99187 1.5 15C1.5 23.0081 7.99187 29.5 16 29.5Z" stroke="black" stroke-opacity="0.097"/>
<g id="Vector_5" filter="url(#filter1_d_238_44)">
<path d="M21.069 17.8901C21.056 19.9641 19.858 21.7301 17.947 22.4551C17.499 22.6251 17.033 22.7501 16.569 22.8661C16.292 22.9361 16.141 23.0731 16.119 23.3761C16.091 23.7581 16.052 24.1391 15.999 24.5161C15.935 24.9621 15.782 25.0641 15.372 24.9661C14.666 24.7981 14.59 24.6841 14.684 23.9431C14.692 23.8801 14.701 23.8171 14.708 23.7531C14.778 23.1461 14.692 23.0591 14.111 23.0881C13.85 23.1011 13.741 23.2301 13.716 23.4861C13.682 23.8541 13.646 24.2231 13.586 24.5861C13.526 24.9581 13.37 25.0501 13.012 24.9721C12.248 24.8071 12.192 24.7221 12.292 23.9141C12.418 22.9111 12.415 22.9221 11.489 22.6431C11.079 22.5191 10.681 22.3471 10.28 22.1881C10.036 22.0921 9.95599 21.9101 10.022 21.6391C10.106 21.2941 10.164 20.9411 10.236 20.5921C10.36 19.9971 10.648 19.8171 11.198 20.0331C12.172 20.4161 13.172 20.6521 14.213 20.6771C15.152 20.7001 16.081 20.6381 16.938 20.1771C17.504 19.8721 17.92 19.4251 18.129 18.7841C18.439 17.8321 18.161 17.0621 17.269 16.6791C16.534 16.3641 15.745 16.1891 15.004 15.8871C14.346 15.6191 13.662 15.3511 13.094 14.9301C11.817 13.9861 11.594 12.5901 11.874 11.0991C12.192 9.41808 13.221 8.32808 14.748 7.74908C15.155 7.59608 15.339 7.38208 15.346 6.92508C15.352 6.43008 15.431 5.93508 15.491 5.44208C15.537 5.06308 15.685 4.95708 16.039 5.01508C16.791 5.13808 16.881 5.25708 16.807 6.03808C16.778 6.34308 16.753 6.64808 16.717 6.95108C16.687 7.20608 16.768 7.32308 17.035 7.33108C17.644 7.34908 17.67 7.33808 17.742 6.70808C17.788 6.30308 17.822 5.89708 17.877 5.49308C17.937 5.04508 18.082 4.94308 18.495 5.02708C19.19 5.17008 19.267 5.27608 19.199 6.00008C19.169 6.31708 19.154 6.63708 19.099 6.95008C19.036 7.31008 19.146 7.47708 19.504 7.56008C20.185 7.71808 20.859 7.91808 21.528 8.12608C22.031 8.28208 22.051 8.33908 21.954 8.86208C21.897 9.17508 21.84 9.48908 21.766 9.79808C21.628 10.3801 21.338 10.5531 20.784 10.3671C19.836 10.0471 18.884 9.75808 17.879 9.71508C16.999 9.67808 16.131 9.69108 15.367 10.2441C14.291 11.0221 14.285 12.6041 15.429 13.2701C16.157 13.6941 16.998 13.9101 17.787 14.2221C18.268 14.4121 18.762 14.5761 19.224 14.8061C20.462 15.4241 21.083 16.4571 21.069 17.8911" fill="black"/>
</g>
<path id="Vector_6" d="M21.069 17.8901C21.056 19.9641 19.858 21.7301 17.947 22.4551C17.499 22.6251 17.033 22.7501 16.569 22.8661C16.292 22.9361 16.141 23.0731 16.119 23.3761C16.091 23.7581 16.052 24.1391 15.999 24.5161C15.935 24.9621 15.782 25.0641 15.372 24.9661C14.666 24.7981 14.59 24.6841 14.684 23.9431C14.692 23.8801 14.701 23.8171 14.708 23.7531C14.778 23.1461 14.692 23.0591 14.111 23.0881C13.85 23.1011 13.741 23.2301 13.716 23.4861C13.682 23.8541 13.646 24.2231 13.586 24.5861C13.526 24.9581 13.37 25.0501 13.012 24.9721C12.248 24.8071 12.192 24.7221 12.292 23.9141C12.418 22.9111 12.415 22.9221 11.489 22.6431C11.079 22.5191 10.681 22.3471 10.28 22.1881C10.036 22.0921 9.95599 21.9101 10.022 21.6391C10.106 21.2941 10.164 20.9411 10.236 20.5921C10.36 19.9971 10.648 19.8171 11.198 20.0331C12.172 20.4161 13.172 20.6521 14.213 20.6771C15.152 20.7001 16.081 20.6381 16.938 20.1771C17.504 19.8721 17.92 19.4251 18.129 18.7841C18.439 17.8321 18.161 17.0621 17.269 16.6791C16.534 16.3641 15.745 16.1891 15.004 15.8871C14.346 15.6191 13.662 15.3511 13.094 14.9301C11.817 13.9861 11.594 12.5901 11.874 11.0991C12.192 9.41808 13.221 8.32808 14.748 7.74908C15.155 7.59608 15.339 7.38208 15.346 6.92508C15.352 6.43008 15.431 5.93508 15.491 5.44208C15.537 5.06308 15.685 4.95708 16.039 5.01508C16.791 5.13808 16.881 5.25708 16.807 6.03808C16.778 6.34308 16.753 6.64808 16.717 6.95108C16.687 7.20608 16.768 7.32308 17.035 7.33108C17.644 7.34908 17.67 7.33808 17.742 6.70808C17.788 6.30308 17.822 5.89708 17.877 5.49308C17.937 5.04508 18.082 4.94308 18.495 5.02708C19.19 5.17008 19.267 5.27608 19.199 6.00008C19.169 6.31708 19.154 6.63708 19.099 6.95008C19.036 7.31008 19.146 7.47708 19.504 7.56008C20.185 7.71808 20.859 7.91808 21.528 8.12608C22.031 8.28208 22.051 8.33908 21.954 8.86208C21.897 9.17508 21.84 9.48908 21.766 9.79808C21.628 10.3801 21.338 10.5531 20.784 10.3671C19.836 10.0471 18.884 9.75808 17.879 9.71508C16.999 9.67808 16.131 9.69108 15.367 10.2441C14.291 11.0221 14.285 12.6041 15.429 13.2701C16.157 13.6941 16.998 13.9101 17.787 14.2221C18.268 14.4121 18.762 14.5761 19.224 14.8061C20.462 15.4241 21.083 16.4571 21.069 17.8911" fill="white"/>
</g>
</g>
<defs>
<filter id="filter0_d_238_44" x="0" y="-0.5" width="32" height="32" filterUnits="userSpaceOnUse" color-interpolation-filters="sRGB">
<feFlood flood-opacity="0" result="BackgroundImageFix"/>
<feColorMatrix in="SourceAlpha" type="matrix" values="0 0 0 0 0 0 0 0 0 0 0 0 0 0 0 0 0 0 127 0" result="hardAlpha"/>
<feOffset dy="0.5"/>
<feGaussianBlur stdDeviation="0.5"/>
<feComposite in2="hardAlpha" operator="out"/>
<feColorMatrix type="matrix" values="0 0 0 0 0 0 0 0 0 0 0 0 0 0 0 0 0 0 0.199474 0"/>
<feBlend mode="normal" in2="BackgroundImageFix" result="effect1_dropShadow_238_44"/>
<feBlend mode="normal" in="SourceGraphic" in2="effect1_dropShadow_238_44" result="shape"/>
</filter>
<filter id="filter1_d_238_44" x="8.99982" y="4.50024" width="14.0001" height="22" filterUnits="userSpaceOnUse" color-interpolation-filters="sRGB">
<feFlood flood-opacity="0" result="BackgroundImageFix"/>
<feColorMatrix in="SourceAlpha" type="matrix" values="0 0 0 0 0 0 0 0 0 0 0 0 0 0 0 0 0 0 127 0" result="hardAlpha"/>
<feOffset dy="0.5"/>
<feGaussianBlur stdDeviation="0.5"/>
<feColorMatrix type="matrix" values="0 0 0 0 0 0 0 0 0 0 0 0 0 0 0 0 0 0 0.204257 0"/>
<feBlend mode="normal" in2="BackgroundImageFix" result="effect1_dropShadow_238_44"/>
<feBlend mode="normal" in="SourceGraphic" in2="effect1_dropShadow_238_44" result="shape"/>
</filter>
<linearGradient id="paint0_linear_238_44" x1="1501" y1="0" x2="1501" y2="3000" gradientUnits="userSpaceOnUse">
<stop stop-color="white" stop-opacity="0.5"/>
<stop offset="1" stop-opacity="0.5"/>
</linearGradient>
<clipPath id="clip0_238_44">
<rect width="32" height="32" fill="white"/>
</clipPath>
</defs>
</svg>
